<?xml version="1.0" encoding="utf-8"?>
<!-- Generator: Adobe Illustrator 26.3.1, SVG Export Plug-In . SVG Version: 6.00 Build 0)  -->
<svg version="1.1" id="_лой_2" xmlns="http://www.w3.org/2000/svg" xmlns:xlink="http://www.w3.org/1999/xlink" x="0px" y="0px"
	 viewBox="0 0 451.4 268.4" style="enable-background:new 0 0 451.4 268.4;" xml:space="preserve">
<style type="text/css">
	.st0{fill-rule:evenodd;clip-rule:evenodd;fill:#2DAABD;}
	.st1{fill:#2DAABD;}
	.st2{fill:#757575;}
	.st3{fill-rule:evenodd;clip-rule:evenodd;fill:#FFFFFF;}
	.st4{enable-background:new    ;}
</style>
<g id="cdr_layer2">
	<g>
		<g>
			<polygon class="st0" points="126,85.2 276.1,85.2 260.8,139.2 110.7,139.2 			"/>
			<polygon class="st0" points="126,85.2 276.1,85.2 260.8,139.2 110.7,139.2 			"/>
			<path class="st0" d="M278.7,94.5l1-3.6h32.2l-1,3.6h-14L285,135.2h-4.2l11.8-40.7C292.7,94.5,278.7,94.5,278.7,94.5z M316,111.5
				h13c3.3,0,6.1-0.7,8.4-2c2.6-1.5,4.3-3.8,5.2-6.8c0.9-3,0.4-5.2-1.3-6.6c-1.5-1.1-3.8-1.7-7-1.7H321L316,111.5L316,111.5z
				 M328.1,115.1H315l-5.8,20.1H305l12.9-44.3h17.3c5,0,8.5,0.9,10.5,2.8c2,1.8,2.4,4.8,1.2,8.8c-0.8,2.8-2,5-3.6,6.6
				c-1.6,1.6-3.8,3-6.7,4.2c2.1,0.8,3.2,2.4,3.4,4.9c0.1,1.6-0.3,4-1.2,7.1c-0.9,3.1-1.4,5.4-1.5,6.7c-0.1,1.3,0.1,2.2,0.6,2.7
				l-0.1,0.4H333c-0.3-1.1,0-3.8,0.9-7.8c0.9-4.1,1.4-6.4,1.4-6.9c0.2-2.2-0.5-3.7-1.9-4.5C332.4,115.4,330.6,115.1,328.1,115.1z
				 M346.2,135.2h-4.3l30.2-44.3h4.7l4.1,44.3h-4.3l-1.1-13.9h-20.1L346.2,135.2z M373.4,94.5l-15.4,23.2h17.3L373.4,94.5z
				 M392.6,135.2h-4.2l12.9-44.3h4.2L392.6,135.2z M433.7,135.2l-14.2-38.6l-11.3,38.6h-4.2l12.9-44.3h4.7l14.3,38.7l11.4-38.7h4.2
				l-12.9,44.3H433.7z"/>
			<g>
				<path class="st0" d="M210.4,182.1c-1.1-0.9-1.3-2.6-0.3-3.7c0.9-1.1,2.6-1.2,3.7-0.3c1.1,0.9,1.3,2.6,0.3,3.7
					S211.5,183,210.4,182.1z"/>
				<path class="st0" d="M201.6,193.1c-1.2-1-1.4-2.8-0.4-4c1-1.2,2.8-1.4,4-0.4c1.2,1,1.4,2.8,0.4,4
					C204.7,194,202.9,194.2,201.6,193.1z"/>
				<path class="st0" d="M190.8,202.2c-1.3-1.1-1.5-3.1-0.4-4.4c1.1-1.3,3.1-1.5,4.4-0.4c1.3,1.1,1.5,3.1,0.4,4.4
					C194.1,203.2,192.1,203.3,190.8,202.2z"/>
				<path class="st0" d="M178.4,208.9c-1.4-1.2-1.6-3.3-0.4-4.7s3.3-1.6,4.7-0.4s1.6,3.3,0.4,4.7S179.8,210.1,178.4,208.9z"/>
				<path class="st0" d="M164.8,212.8c-1.5-1.3-1.7-3.6-0.4-5.1c1.3-1.5,3.5-1.7,5.1-0.4c1.5,1.3,1.7,3.6,0.4,5.1
					S166.4,214.1,164.8,212.8L164.8,212.8z"/>
				<path class="st0" d="M153.5,213.9c-1.6-1.4-1.8-3.8-0.5-5.4c1.4-1.6,3.8-1.8,5.4-0.5c1.6,1.4,1.8,3.8,0.5,5.4
					C157.6,215,155.2,215.2,153.5,213.9z"/>
				<path class="st0" d="M142.6,212.2c-1.5-1.3-1.7-3.5-0.4-5.1c1.3-1.5,3.5-1.7,5.1-0.4c1.5,1.3,1.7,3.5,0.4,5.1
					C146.4,213.2,144.2,213.4,142.6,212.2z"/>
				<path class="st0" d="M132.2,208.5c-1.4-1.2-1.6-3.3-0.4-4.7c1.2-1.4,3.3-1.6,4.7-0.4c1.4,1.2,1.6,3.3,0.4,4.7
					C135.7,209.5,133.6,209.7,132.2,208.5z"/>
				<path class="st0" d="M122.5,203c-1.3-1.1-1.5-3-0.4-4.3c1.1-1.3,3-1.5,4.3-0.4c1.3,1.1,1.5,3,0.4,4.3
					C125.8,203.9,123.8,204.1,122.5,203z"/>
				<path class="st0" d="M114,195.8c-1.2-1-1.3-2.8-0.3-4c1-1.2,2.8-1.4,4-0.4c1.2,1,1.4,2.8,0.3,4
					C116.9,196.6,115.2,196.8,114,195.8z"/>
				<path class="st0" d="M106.7,187.2c-1.1-0.9-1.2-2.5-0.3-3.6c0.9-1.1,2.5-1.2,3.6-0.3c1.1,0.9,1.2,2.5,0.3,3.6
					C109.4,188,107.8,188.1,106.7,187.2z"/>
				<path class="st0" d="M101,177.5c-1-0.8-1.1-2.3-0.3-3.3c0.8-1,2.3-1.1,3.3-0.3c1,0.8,1.1,2.3,0.3,3.3
					C103.5,178.2,102,178.4,101,177.5z"/>
				<path class="st0" d="M97,167c-0.9-0.7-1-2-0.3-2.9c0.7-0.9,2-1,2.9-0.3c0.9,0.7,1,2,0.3,2.9C99.1,167.6,97.8,167.7,97,167z"/>
				<path class="st0" d="M94.7,155.9c-0.8-0.6-0.9-1.8-0.2-2.6c0.7-0.8,1.8-0.9,2.6-0.2c0.8,0.6,0.9,1.8,0.2,2.6
					C96.6,156.4,95.4,156.5,94.7,155.9z"/>
				<path class="st0" d="M94.1,144.5c-0.7-0.6-0.7-1.5-0.2-2.2c0.6-0.7,1.5-0.8,2.2-0.2c0.7,0.6,0.8,1.5,0.2,2.2
					C95.8,145,94.8,145.1,94.1,144.5z"/>
				<path class="st0" d="M95.4,133.2c-0.6-0.5-0.6-1.3-0.2-1.9c0.5-0.6,1.3-0.6,1.8-0.2c0.6,0.5,0.6,1.3,0.2,1.9
					C96.8,133.6,96,133.7,95.4,133.2z"/>
				<path class="st0" d="M223.4,181c-0.7-1.2-0.3-2.6,0.9-3.3c1.1-0.7,2.6-0.3,3.3,0.9c0.7,1.2,0.3,2.6-0.9,3.3
					C225.5,182.5,224,182.1,223.4,181z"/>
				<path class="st0" d="M214.3,194.2c-0.8-1.3-0.3-2.9,1-3.7c1.3-0.8,2.9-0.3,3.7,1c0.7,1.3,0.3,2.9-1,3.7
					C216.7,195.9,215,195.5,214.3,194.2z"/>
				<path class="st0" d="M202.7,205.2c-0.8-1.4-0.3-3.2,1.1-4.1s3.2-0.3,4.1,1.1s0.3,3.2-1.1,4.1S203.5,206.7,202.7,205.2z"/>
				<path class="st0" d="M189,213.7c-0.9-1.6-0.4-3.6,1.2-4.4c1.6-0.9,3.5-0.4,4.4,1.2c0.9,1.6,0.4,3.5-1.2,4.4
					C191.9,215.8,189.9,215.2,189,213.7z"/>
				<path class="st0" d="M173.9,219.2c-1-1.7-0.4-3.8,1.3-4.8c1.7-1,3.8-0.4,4.8,1.3c1,1.7,0.4,3.9-1.3,4.8
					C177.1,221.4,174.9,220.8,173.9,219.2L173.9,219.2z"/>
				<path class="st0" d="M158.1,221.4c-1.1-1.8-0.4-4.1,1.4-5.2s4.1-0.4,5.2,1.4s0.4,4.1-1.4,5.2
					C161.4,223.9,159.1,223.2,158.1,221.4z"/>
				<path class="st0" d="M142.1,220.4c-1.1-1.9-0.5-4.4,1.5-5.6c1.9-1.1,4.4-0.5,5.6,1.5c1.1,1.9,0.5,4.4-1.5,5.6
					C145.7,223,143.2,222.3,142.1,220.4z"/>
				<path class="st0" d="M128.6,215.9c-1.2-2.1-0.5-4.8,1.6-6c2.1-1.2,4.8-0.5,6,1.6c1.2,2.1,0.5,4.8-1.6,6
					C132.4,218.7,129.8,217.9,128.6,215.9z"/>
				<path class="st0" d="M117.5,209.6c-1.1-1.9-0.5-4.4,1.5-5.6c1.9-1.1,4.4-0.4,5.6,1.5c1.1,1.9,0.5,4.4-1.5,5.6
					C121.2,212.3,118.7,211.6,117.5,209.6z"/>
				<path class="st0" d="M107.8,201.6c-1.1-1.8-0.4-4.1,1.4-5.2c1.8-1.1,4.1-0.4,5.2,1.4c1,1.8,0.4,4.1-1.4,5.2
					S108.8,203.4,107.8,201.6z"/>
				<path class="st0" d="M99.5,191.9c-1-1.7-0.4-3.8,1.3-4.8c1.7-1,3.8-0.4,4.8,1.3c1,1.7,0.4,3.8-1.3,4.8
					C102.6,194.2,100.5,193.6,99.5,191.9z"/>
				<path class="st0" d="M92.9,180.9c-0.9-1.5-0.4-3.5,1.2-4.4c1.5-0.9,3.5-0.4,4.4,1.2s0.4,3.5-1.2,4.4
					C95.8,183,93.8,182.5,92.9,180.9z"/>
				<path class="st0" d="M88.3,169c-0.8-1.4-0.3-3.2,1.1-4s3.2-0.3,4,1.1s0.3,3.2-1.1,4S89.1,170.4,88.3,169z"/>
				<path class="st0" d="M85.8,156.4c-0.7-1.3-0.3-2.9,1-3.6c1.3-0.7,2.9-0.3,3.6,1s0.3,2.9-1,3.6C88.1,158.1,86.5,157.6,85.8,156.4
					z"/>
				<path class="st0" d="M85.3,143.4c-0.7-1.1-0.3-2.6,0.9-3.2c1.1-0.6,2.6-0.3,3.2,0.9c0.7,1.1,0.3,2.6-0.9,3.2
					C87.4,144.9,86,144.6,85.3,143.4z"/>
				<path class="st0" d="M87,130.6c-0.6-1-0.2-2.2,0.8-2.8c1-0.6,2.2-0.2,2.8,0.8s0.2,2.2-0.8,2.8C88.8,131.9,87.5,131.6,87,130.6
					L87,130.6z"/>
				<path class="st0" d="M90.7,118.2c-0.5-0.8-0.2-1.9,0.7-2.4s1.9-0.2,2.4,0.7c0.5,0.8,0.2,1.9-0.7,2.4
					C92.3,119.3,91.2,119,90.7,118.2z"/>
				<path class="st0" d="M96.5,106.5c-0.4-0.7-0.2-1.6,0.5-2s1.6-0.2,2,0.5c0.4,0.7,0.2,1.6-0.6,2S96.9,107.2,96.5,106.5z"/>
				<path class="st0" d="M251.4,183.3c-0.3-1.1,0.3-2.3,1.4-2.6c1.1-0.3,2.2,0.3,2.6,1.4c0.3,1.1-0.3,2.3-1.4,2.6
					C252.9,185,251.7,184.4,251.4,183.3L251.4,183.3z"/>
				<path class="st0" d="M233.7,186.9c-0.4-1.3,0.3-2.6,1.6-3c1.2-0.4,2.6,0.3,3,1.6s-0.3,2.6-1.6,3S234.1,188.1,233.7,186.9z"/>
				<path class="st0" d="M223.3,201.6c-0.4-1.4,0.4-3,1.8-3.4s2.9,0.4,3.4,1.8c0.4,1.4-0.4,3-1.8,3.4S223.7,203.1,223.3,201.6z"/>
				<path class="st0" d="M210.1,213.9c-0.5-1.6,0.4-3.3,2-3.8c1.6-0.5,3.3,0.4,3.7,2c0.5,1.6-0.4,3.3-2,3.8
					C212.3,216.4,210.6,215.5,210.1,213.9z"/>
				<path class="st0" d="M194.8,223.2c-0.5-1.8,0.4-3.7,2.2-4.2c1.7-0.5,3.6,0.5,4.1,2.2c0.5,1.8-0.4,3.7-2.2,4.2
					C197.2,225.9,195.3,224.9,194.8,223.2z"/>
				<path class="st0" d="M177.9,229c-0.6-1.9,0.5-4,2.4-4.6s3.9,0.5,4.5,2.4c0.6,1.9-0.5,4-2.4,4.6C180.5,232.1,178.4,231,177.9,229
					z"/>
				<path class="st0" d="M160.1,231.2c-0.6-2.1,0.5-4.4,2.6-5c2.1-0.6,4.3,0.6,4.9,2.7c0.6,2.1-0.5,4.4-2.6,5
					C163,234.5,160.8,233.4,160.1,231.2z"/>
				<path class="st0" d="M142.4,229.7c-0.7-2.3,0.6-4.7,2.8-5.4c2.2-0.7,4.6,0.6,5.3,2.9c0.7,2.3-0.6,4.7-2.8,5.4
					S143,232,142.4,229.7L142.4,229.7z"/>
				<path class="st0" d="M125.3,224.4c-0.7-2.4,0.6-5,3-5.8c2.4-0.8,4.9,0.6,5.7,3.1c0.7,2.4-0.6,5-3,5.8
					C128.6,228.2,126.1,226.9,125.3,224.4z"/>
				<path class="st0" d="M109.1,215.3c-0.8-2.6,0.7-5.4,3.2-6.2c2.6-0.8,5.3,0.7,6.1,3.3c0.8,2.6-0.7,5.4-3.2,6.2
					C112.6,219.4,109.9,217.9,109.1,215.3z"/>
				<path class="st0" d="M98.5,205.6c-0.7-2.4,0.6-5,3-5.8c2.4-0.8,4.9,0.6,5.7,3.1s-0.6,5-3,5.8C101.8,209.4,99.3,208.1,98.5,205.6
					z"/>
				<path class="st0" d="M89.7,194.2c-0.7-2.3,0.6-4.7,2.8-5.4c2.2-0.7,4.6,0.6,5.3,2.9s-0.6,4.7-2.8,5.4
					C92.8,197.8,90.4,196.5,89.7,194.2z"/>
				<path class="st0" d="M83,181.4c-0.6-2.1,0.5-4.3,2.6-5s4.2,0.5,4.9,2.6s-0.5,4.3-2.6,5C85.8,184.7,83.7,183.5,83,181.4z"/>
				<path class="st0" d="M78.5,167.6c-0.6-1.9,0.5-4,2.4-4.6c1.9-0.6,3.9,0.5,4.5,2.4s-0.5,4-2.4,4.6S79.1,169.5,78.5,167.6z"/>
				<path class="st0" d="M76.4,153.2c-0.5-1.8,0.4-3.6,2.2-4.1c1.7-0.5,3.5,0.4,4.1,2.2c0.5,1.8-0.4,3.6-2.2,4.1
					C78.7,155.9,76.9,154.9,76.4,153.2z"/>
				<path class="st0" d="M76.7,138.6c-0.5-1.6,0.4-3.3,1.9-3.7c1.6-0.5,3.2,0.4,3.7,2c0.5,1.6-0.4,3.3-1.9,3.7
					S77.1,140.1,76.7,138.6z"/>
				<path class="st0" d="M79.3,124.1c-0.4-1.4,0.4-2.9,1.7-3.3s2.8,0.4,3.3,1.8c0.4,1.4-0.3,2.9-1.7,3.3S79.8,125.5,79.3,124.1z"/>
				<path class="st0" d="M84.4,110.3c-0.4-1.2,0.3-2.6,1.5-2.9c1.2-0.4,2.5,0.3,2.9,1.6s-0.3,2.6-1.5,2.9
					C86,112.2,84.8,111.5,84.4,110.3z"/>
				<path class="st0" d="M91.7,97.5c-0.3-1.1,0.3-2.2,1.3-2.5c1-0.3,2.1,0.3,2.5,1.3c0.3,1.1-0.3,2.2-1.3,2.5
					C93.1,99.1,92,98.5,91.7,97.5z"/>
				<path class="st0" d="M101,86c-0.3-0.9,0.2-1.8,1.1-2.1c0.9-0.3,1.8,0.2,2.1,1.1c0.3,0.9-0.2,1.8-1.1,2.1
					C102.2,87.4,101.3,86.9,101,86z"/>
				<path class="st0" d="M244.8,196.4c-0.3-1.3,0.5-2.6,1.8-2.9c1.3-0.3,2.5,0.5,2.8,1.8c0.3,1.3-0.5,2.6-1.8,2.9
					S245.1,197.7,244.8,196.4L244.8,196.4z"/>
				<path class="st0" d="M233.8,211.7c-0.3-1.5,0.6-3,2-3.4c1.4-0.4,2.9,0.6,3.2,2.1c0.3,1.5-0.6,3-2,3.4
					C235.6,214.1,234.1,213.2,233.8,211.7z"/>
				<path class="st0" d="M220.1,224.7c-0.4-1.7,0.6-3.4,2.3-3.8c1.6-0.4,3.3,0.7,3.7,2.4c0.4,1.7-0.6,3.4-2.3,3.8
					C222.2,227.4,220.5,226.4,220.1,224.7L220.1,224.7z"/>
				<path class="st0" d="M204.2,234.9c-0.4-1.9,0.7-3.8,2.6-4.2c1.8-0.4,3.7,0.8,4.1,2.6c0.4,1.9-0.7,3.8-2.6,4.2
					C206.5,237.9,204.6,236.7,204.2,234.9z"/>
				<path class="st0" d="M186.6,241.8c-0.5-2.1,0.8-4.2,2.8-4.6c2-0.5,4.1,0.8,4.5,2.9c0.5,2.1-0.8,4.2-2.8,4.7
					C189.1,245.2,187.1,243.9,186.6,241.8L186.6,241.8z"/>
				<path class="st0" d="M168,245.2c-0.5-2.3,0.9-4.6,3.1-5.1c2.2-0.5,4.4,0.9,4.9,3.2c0.5,2.3-0.9,4.6-3.1,5.1
					C170.8,248.9,168.5,247.5,168,245.2L168,245.2z"/>
				<path class="st0" d="M149.1,244.8c-0.6-2.5,0.9-5,3.4-5.5c2.4-0.6,4.8,1,5.4,3.5c0.6,2.5-0.9,4.9-3.3,5.5
					C152.1,248.9,149.7,247.3,149.1,244.8L149.1,244.8z"/>
				<path class="st0" d="M130.7,240.8c-0.6-2.7,1-5.4,3.6-6c2.6-0.6,5.2,1.1,5.8,3.7c0.6,2.7-1,5.4-3.6,6S131.3,243.5,130.7,240.8z"
					/>
				<path class="st0" d="M113.4,233.3c-0.6-2.9,1.1-5.7,3.9-6.4c2.8-0.7,5.6,1.1,6.2,4s-1.1,5.7-3.9,6.4
					C116.9,237.9,114.1,236.1,113.4,233.3z"/>
				<path class="st0" d="M98,222.6c-0.7-3.1,1.2-6.1,4.1-6.8s5.9,1.2,6.6,4.3c0.7,3.1-1.2,6.1-4.1,6.8
					C101.6,227.6,98.7,225.6,98,222.6z"/>
				<path class="st0" d="M86.8,210.5c-0.6-2.9,1.1-5.7,3.9-6.4s5.6,1.1,6.2,4c0.6,2.9-1.1,5.7-3.9,6.4
					C90.2,215.2,87.4,213.4,86.8,210.5z"/>
				<path class="st0" d="M77.8,196.7c-0.6-2.7,1-5.3,3.6-5.9c2.6-0.6,5.2,1.1,5.8,3.7c0.6,2.7-1,5.3-3.6,5.9
					C81,201,78.4,199.4,77.8,196.7z"/>
				<path class="st0" d="M71.2,181.5c-0.6-2.5,0.9-4.9,3.3-5.5c2.4-0.6,4.8,1,5.3,3.4s-0.9,4.9-3.3,5.5
					C74.2,185.5,71.8,183.9,71.2,181.5L71.2,181.5z"/>
				<path class="st0" d="M67.3,165.3c-0.5-2.3,0.9-4.5,3.1-5s4.4,0.9,4.9,3.1c0.5,2.3-0.9,4.5-3.1,5C70,169,67.8,167.6,67.3,165.3z"
					/>
				<path class="st0" d="M66,148.7c-0.5-2.1,0.8-4.1,2.8-4.6c2-0.5,4,0.8,4.4,2.9c0.5,2.1-0.8,4.1-2.8,4.6
					C68.5,152,66.5,150.8,66,148.7z"/>
				<path class="st0" d="M67.5,132c-0.4-1.9,0.7-3.7,2.5-4.1c1.8-0.4,3.6,0.7,4,2.6c0.4,1.9-0.7,3.7-2.5,4.1
					C69.7,135,67.9,133.9,67.5,132z"/>
				<path class="st0" d="M71.7,115.8c-0.4-1.7,0.6-3.3,2.2-3.7c1.6-0.4,3.2,0.7,3.6,2.3s-0.6,3.3-2.2,3.7
					C73.6,118.5,72,117.4,71.7,115.8z"/>
				<path class="st0" d="M78.4,100.3c-0.3-1.4,0.6-2.9,2-3.2c1.4-0.3,2.8,0.6,3.1,2c0.3,1.4-0.6,2.9-2,3.2
					C80.2,102.7,78.8,101.8,78.4,100.3z"/>
				<path class="st0" d="M87.7,86.2c-0.3-1.2,0.5-2.5,1.7-2.8c1.2-0.3,2.4,0.5,2.7,1.7c0.3,1.2-0.5,2.5-1.7,2.8S88,87.5,87.7,86.2z"
					/>
				<path class="st0" d="M99.2,73.8c-0.2-1,0.4-2.1,1.4-2.3c1-0.2,2,0.4,2.3,1.5c0.2,1.1-0.4,2.1-1.4,2.3
					C100.5,75.5,99.4,74.8,99.2,73.8z"/>
				<path class="st0" d="M146,257.2c1.1-1.9,3.5-2.5,5.4-1.4c1.9,1.1,2.5,3.5,1.4,5.4c-1.1,1.9-3.5,2.5-5.4,1.5
					C145.6,261.5,144.9,259.1,146,257.2z"/>
				<path class="st0" d="M123.5,250.6c1.2-2.1,3.9-2.8,5.9-1.6c2.1,1.2,2.8,3.9,1.6,5.9c-1.2,2.1-3.9,2.8-5.9,1.6
					S122.3,252.7,123.5,250.6z"/>
				<path class="st0" d="M102.8,239.5c1.3-2.3,4.2-3.1,6.5-1.7c2.3,1.3,3.1,4.2,1.7,6.5s-4.2,3.1-6.5,1.7
					C102.2,244.7,101.5,241.8,102.8,239.5z"/>
				<path class="st0" d="M84.8,224.4c1.4-2.5,4.6-3.3,7.1-1.9c2.5,1.4,3.3,4.6,1.9,7.1c-1.4,2.5-4.6,3.3-7.1,1.9
					C84.2,230,83.4,226.9,84.8,224.4z"/>
				<path class="st0" d="M70.3,205.9c1.5-2.7,4.9-3.6,7.6-2c2.7,1.5,3.6,4.9,2,7.6c-1.5,2.7-4.9,3.6-7.6,2
					C69.7,212,68.8,208.6,70.3,205.9z"/>
				<path class="st0" d="M60,184.9c1.7-2.9,5.3-3.8,8.2-2.2s3.8,5.3,2.2,8.2s-5.3,3.8-8.2,2.2C59.3,191.4,58.3,187.8,60,184.9z"/>
				<path class="st0" d="M54.2,162.2c1.8-3.1,5.7-4.1,8.7-2.3c3.1,1.8,4.1,5.7,2.3,8.7c-1.8,3.1-5.7,4.1-8.7,2.3
					C53.5,169.2,52.4,165.3,54.2,162.2z"/>
				<path class="st0" d="M53.7,143.6c1.6-2.9,5.3-3.8,8.1-2.2c2.8,1.6,3.8,5.3,2.2,8.1c-1.7,2.9-5.3,3.8-8.2,2.2
					C53,150.1,52,146.4,53.7,143.6L53.7,143.6z"/>
				<path class="st0" d="M56.4,125c1.5-2.7,4.9-3.6,7.6-2c2.7,1.5,3.6,4.9,2,7.6s-4.9,3.6-7.6,2S54.8,127.7,56.4,125z"/>
				<path class="st0" d="M62.3,107.2c1.4-2.4,4.6-3.3,7-1.9c2.4,1.4,3.3,4.6,1.9,7c-1.4,2.4-4.6,3.3-7,1.9
					C61.7,112.8,60.9,109.6,62.3,107.2z"/>
				<path class="st0" d="M71.2,90.5c1.3-2.2,4.2-3,6.4-1.7s3,4.2,1.7,6.4c-1.3,2.2-4.2,3-6.4,1.7C70.7,95.7,69.9,92.8,71.2,90.5z"/>
				<path class="st0" d="M82.9,75.6c1.2-2.1,3.8-2.8,5.8-1.6c2.1,1.2,2.8,3.8,1.6,5.8c-1.2,2.1-3.8,2.8-5.8,1.6
					C82.4,80.3,81.7,77.6,82.9,75.6z"/>
				<path class="st0" d="M97,62.8c1.1-1.8,3.4-2.5,5.3-1.4c1.8,1.1,2.5,3.4,1.4,5.3c-1.1,1.8-3.4,2.5-5.3,1.4
					C96.5,67,95.9,64.7,97,62.8z"/>
				<path class="st0" d="M113.1,52.6c0.9-1.6,3.1-2.2,4.7-1.3s2.2,3.1,1.3,4.7c-0.9,1.7-3.1,2.2-4.7,1.3S112.1,54.2,113.1,52.6z"/>
				<path class="st0" d="M130.8,45.2c0.8-1.4,2.7-1.9,4.1-1.1c1.4,0.8,1.9,2.7,1.1,4.1c-0.8,1.5-2.7,1.9-4.1,1.1
					C130.4,48.5,129.9,46.7,130.8,45.2z"/>
				<path class="st0" d="M149.5,40.9c0.7-1.2,2.3-1.7,3.6-1c1.2,0.7,1.7,2.3,0.9,3.5c-0.7,1.2-2.3,1.7-3.6,1
					C149.2,43.7,148.8,42.1,149.5,40.9z"/>
				<path class="st0" d="M168.7,39.8c0.6-1,1.9-1.4,3-0.8s1.4,1.9,0.8,3c-0.6,1-1.9,1.4-3,0.8S168.1,40.8,168.7,39.8z"/>
				<path class="st0" d="M104.7,260.4c1.9-1.6,4.7-1.3,6.3,0.6c1.6,1.9,1.3,4.7-0.6,6.3c-1.9,1.6-4.7,1.3-6.3-0.6
					C102.6,264.8,102.8,262,104.7,260.4z"/>
				<path class="st0" d="M83.3,244.6c2.1-1.8,5.2-1.5,7,0.6c1.8,2.1,1.5,5.2-0.6,7c-2.1,1.8-5.2,1.5-7-0.6S81.2,246.4,83.3,244.6z"
					/>
				<path class="st0" d="M65.5,224.7c2.3-1.9,5.7-1.6,7.6,0.7c1.9,2.3,1.6,5.7-0.7,7.6c-2.3,1.9-5.7,1.6-7.6-0.7
					C62.9,230,63.2,226.6,65.5,224.7z"/>
				<path class="st0" d="M52.2,201.6c2.5-2.1,6.2-1.8,8.3,0.7c2.1,2.5,1.8,6.2-0.7,8.3s-6.2,1.8-8.3-0.7
					C49.4,207.4,49.7,203.7,52.2,201.6z"/>
				<path class="st0" d="M43.9,176.3c2.7-2.2,6.7-1.9,8.9,0.8c2.2,2.7,1.9,6.7-0.8,8.9c-2.7,2.2-6.7,1.9-8.9-0.8
					C40.9,182.5,41.2,178.5,43.9,176.3z"/>
				<path class="st0" d="M41.1,149.9c2.9-2.4,7.2-2,9.6,0.8s2,7.1-0.8,9.6c-2.9,2.4-7.2,2-9.6-0.8C37.8,156.5,38.2,152.3,41.1,149.9
					z"/>
				<path class="st0" d="M43.7,123.4c3.1-2.6,7.6-2.2,10.2,0.9c2.6,3.1,2.2,7.6-0.9,10.2c-3.1,2.6-7.6,2.2-10.2-0.9
					C40.2,130.6,40.6,126,43.7,123.4z"/>
				<path class="st0" d="M50.3,103.3c2.9-2.4,7.1-2,9.5,0.8c2.4,2.9,2,7.1-0.8,9.5c-2.9,2.4-7.1,2-9.5-0.8
					C47.1,110,47.5,105.7,50.3,103.3z"/>
				<path class="st0" d="M60.5,84.6c2.7-2.2,6.6-1.9,8.9,0.8c2.2,2.7,1.9,6.6-0.8,8.9c-2.7,2.2-6.6,1.9-8.9-0.8
					C57.4,90.8,57.8,86.8,60.5,84.6z"/>
				<path class="st0" d="M73.7,67.8c2.5-2.1,6.1-1.8,8.2,0.7c2.1,2.5,1.7,6.1-0.7,8.2S75,78.5,73,76C70.9,73.6,71.2,69.9,73.7,67.8z
					"/>
				<path class="st0" d="M89.7,53.5c2.3-1.9,5.6-1.6,7.5,0.7c1.9,2.3,1.6,5.6-0.7,7.5c-2.3,1.9-5.6,1.6-7.5-0.7
					C87.1,58.8,87.4,55.4,89.7,53.5z"/>
				<path class="st0" d="M107.9,42.1c2.1-1.7,5.1-1.5,6.8,0.6c1.7,2.1,1.5,5.1-0.6,6.8c-2.1,1.7-5.1,1.5-6.8-0.6
					C105.6,46.9,105.9,43.9,107.9,42.1z"/>
				<path class="st0" d="M127.9,34c1.8-1.5,4.6-1.3,6.2,0.5c1.6,1.8,1.3,4.6-0.5,6.2c-1.9,1.6-4.6,1.3-6.2-0.5
					C125.8,38.3,126.1,35.5,127.9,34L127.9,34z"/>
				<path class="st0" d="M149.1,29.3c1.6-1.4,4.1-1.2,5.5,0.5c1.4,1.6,1.2,4.1-0.5,5.5c-1.6,1.4-4.1,1.2-5.5-0.5
					C147.2,33.2,147.5,30.7,149.1,29.3z"/>
				<path class="st0" d="M170.8,28.3c1.4-1.2,3.6-1,4.8,0.4s1,3.6-0.4,4.8s-3.6,1-4.8-0.4C169.2,31.7,169.4,29.5,170.8,28.3z"/>
				<path class="st0" d="M192.5,31c1.2-1,3.1-0.9,4.2,0.4c1.1,1.2,0.9,3.1-0.4,4.2s-3.1,0.9-4.2-0.4S191.2,32,192.5,31z"/>
				<path class="st0" d="M213.4,37.2c1.1-0.9,2.6-0.7,3.5,0.3s0.8,2.6-0.3,3.5c-1.1,0.9-2.6,0.7-3.5-0.3
					C212.2,39.7,212.3,38.1,213.4,37.2L213.4,37.2z"/>
				<path class="st0" d="M66.5,247.8c2.6-1,5.6,0.4,6.5,3s-0.4,5.6-3,6.5s-5.6-0.4-6.5-3S63.9,248.8,66.5,247.8L66.5,247.8z"/>
				<path class="st0" d="M42.7,222.6c2.9-1.1,6.1,0.4,7.2,3.4s-0.4,6.1-3.4,7.2c-2.9,1.1-6.1-0.4-7.2-3.4
					C38.3,226.9,39.8,223.7,42.7,222.6z"/>
				<path class="st0" d="M31.5,194.5c3.2-1.1,6.7,0.5,7.9,3.7c1.2,3.2-0.5,6.7-3.7,7.9c-3.2,1.2-6.7-0.5-7.9-3.7
					C26.7,199.2,28.3,195.6,31.5,194.5z"/>
				<path class="st0" d="M26.3,164.7c3.5-1.3,7.3,0.5,8.5,4s-0.5,7.3-4,8.5c-3.5,1.3-7.3-0.5-8.5-4C21,169.7,22.8,165.9,26.3,164.7z
					"/>
				<path class="st0" d="M27.2,134.4c3.7-1.4,7.8,0.6,9.2,4.3s-0.6,7.9-4.3,9.2s-7.9-0.6-9.2-4.3C21.6,139.9,23.5,135.8,27.2,134.4z
					"/>
				<path class="st0" d="M34.5,105.1c4-1.4,8.4,0.6,9.9,4.6c1.5,4-0.6,8.4-4.6,9.9s-8.4-0.6-9.9-4.6S30.5,106.6,34.5,105.1z"/>
				<path class="st0" d="M48.1,76c4.3-1.6,9,0.7,10.5,4.9c1.6,4.3-0.6,9-4.9,10.6c-4.3,1.6-9-0.7-10.5-4.9
					C41.6,82.2,43.8,77.5,48.1,76z"/>
				<path class="st0" d="M63.2,57.5c4-1.5,8.4,0.6,9.9,4.6c1.4,4-0.6,8.4-4.6,9.9c-4,1.4-8.4-0.6-9.8-4.6
					C57.2,63.4,59.2,58.9,63.2,57.5z"/>
				<path class="st0" d="M81.4,41.8c3.7-1.3,7.8,0.6,9.2,4.3c1.3,3.7-0.6,7.8-4.3,9.2c-3.7,1.3-7.8-0.6-9.2-4.3
					C75.7,47.3,77.7,43.2,81.4,41.8z"/>
				<path class="st0" d="M102.1,29.5c3.4-1.2,7.2,0.5,8.5,4s-0.5,7.2-3.9,8.5c-3.4,1.2-7.2-0.5-8.5-4S98.6,30.8,102.1,29.5z"/>
				<path class="st0" d="M124.6,20.8c3.2-1.1,6.6,0.5,7.8,3.6c1.1,3.1-0.5,6.6-3.6,7.8c-3.2,1.2-6.6-0.5-7.8-3.6
					C119.8,25.5,121.4,22,124.6,20.8L124.6,20.8z"/>
				<path class="st0" d="M148.4,16c2.9-1,6,0.4,7.1,3.3c1,2.9-0.4,6-3.3,7.1c-2.9,1-6-0.4-7.1-3.3C144,20.2,145.5,17.1,148.4,16z"/>
				<path class="st0" d="M172.7,15.2c2.6-0.9,5.4,0.4,6.4,3c0.9,2.6-0.4,5.4-3,6.4c-2.6,0.9-5.4-0.4-6.4-3
					C168.8,19,170.1,16.2,172.7,15.2z"/>
				<path class="st0" d="M196.9,18.5c2.3-0.8,4.8,0.4,5.7,2.6s-0.4,4.9-2.6,5.7c-2.3,0.8-4.9-0.4-5.7-2.6
					C193.4,21.9,194.6,19.3,196.9,18.5z"/>
				<path class="st0" d="M220.3,25.7c2-0.7,4.3,0.3,5,2.3c0.7,2-0.3,4.3-2.3,5c-2,0.7-4.2-0.3-5-2.3
					C217.2,28.7,218.3,26.5,220.3,25.7z"/>
				<path class="st0" d="M242.2,36.7c1.7-0.6,3.7,0.3,4.3,2c0.6,1.7-0.3,3.7-2,4.3c-1.7,0.6-3.7-0.3-4.3-2
					C239.6,39.3,240.5,37.4,242.2,36.7L242.2,36.7z"/>
				<path class="st0" d="M262.1,51.3c1.5-0.5,3.1,0.2,3.6,1.7c0.5,1.5-0.2,3.1-1.7,3.6c-1.5,0.5-3.1-0.2-3.6-1.7
					C259.9,53.4,260.6,51.8,262.1,51.3L262.1,51.3z"/>
				<path class="st0" d="M8,183.4c3.5,0,6.4,2.9,6.4,6.4s-2.8,6.4-6.4,6.4s-6.4-2.9-6.4-6.4S4.5,183.4,8,183.4z"/>
				<path class="st0" d="M7,149c3.8,0,7,3.1,7,7s-3.1,7-7,7s-7-3.1-7-7S3.1,149,7,149z"/>
				<circle class="st1" cx="12.9" cy="122.7" r="7.6"/>
				<path class="st0" d="M25.7,83.3c4.5,0,8.2,3.7,8.2,8.2s-3.6,8.2-8.2,8.2s-8.2-3.7-8.2-8.2S21.2,83.3,25.7,83.3z"/>
				<path class="st0" d="M44.8,54.8c4.8,0,8.8,3.9,8.8,8.8s-3.9,8.8-8.8,8.8s-8.8-3.9-8.8-8.8S40,54.8,44.8,54.8z"/>
				<path class="st0" d="M69.3,30.9c5.2,0,9.4,4.2,9.4,9.3s-4.2,9.3-9.4,9.3S60,45.4,60,40.3S64.1,30.9,69.3,30.9z"/>
				<path class="st0" d="M92.6,16.6c4.8,0,8.7,3.9,8.7,8.7S97.4,34,92.6,34s-8.7-3.9-8.7-8.7S87.7,16.6,92.6,16.6z"/>
				<path class="st0" d="M118.1,6.5c4.5,0,8.1,3.6,8.1,8.1s-3.6,8.1-8.1,8.1s-8.1-3.6-8.1-8.1S113.6,6.5,118.1,6.5z"/>
				<path class="st0" d="M145,0.9c4.1,0,7.5,3.3,7.5,7.5s-3.4,7.5-7.5,7.5s-7.5-3.4-7.5-7.5S140.9,0.9,145,0.9z"/>
				<path class="st0" d="M172.6,0c3.8,0,6.9,3.1,6.9,6.9s-3.1,6.9-6.9,6.9s-6.9-3.1-6.9-6.9S168.8,0,172.6,0z"/>
				<circle class="st1" cx="200.1" cy="10.1" r="6.3"/>
				<path class="st0" d="M226.6,12.4c3.1,0,5.6,2.5,5.6,5.7s-2.5,5.7-5.6,5.7S221,21.2,221,18S223.5,12.4,226.6,12.4z"/>
				<path class="st0" d="M251.4,25.3c2.8,0,5,2.2,5,5s-2.3,5-5,5s-5-2.2-5-5S248.6,25.3,251.4,25.3L251.4,25.3z"/>
				<circle class="st1" cx="273.7" cy="46.8" r="4.4"/>
				<circle class="st1" cx="292.9" cy="66.7" r="3.8"/>
			</g>
			<rect x="109.1" y="144.8" class="st2" width="331.7" height="1.1"/>
		</g>
		<path class="st3" d="M175.5,93.6l-0.9,38.9h-7.6l0.7-32.5l-8.1,32.5h-8l-6.4-32.6l-0.8,32.6h-7.6l0.9-38.9h11.9l6.4,30.7l7.7-30.7
			H175.5L175.5,93.6z M212,93.6l-0.1,6.9h-20.7l-0.2,8.2h19l-0.1,6.9h-19l-0.2,10.1h21.6l-0.1,6.9h-29.6l0.9-38.9H212L212,93.6z
			 M218.8,132.5l0.9-38.9h17.2c5.9,0,10.1,2.2,12.7,6.5c1.9,3.2,2.8,7.2,2.7,12c-0.1,5.2-1.3,9.7-3.5,13.3
			c-2.9,4.7-7.3,7.1-13.1,7.1H218.8L218.8,132.5z M227.4,100.3l-0.6,25.5h7.9c3,0,5.4-1.4,7-4.1c1.4-2.3,2.1-5.3,2.1-8.9
			c0.1-5.1-0.9-8.6-2.9-10.5c-1.4-1.3-3.3-1.9-5.8-1.9H227.4L227.4,100.3z"/>
	</g>
</g>
<g id="MasterLayer_1">
	<g class="st4">
		<path class="st2" d="M363.2,172.3l-2.4,6.7h-3.2l8.6-23h3.5l8.3,23h-3.4l-2.3-6.7H363.2z M371.3,169.5l-3.4-10.1h-0.1l-3.7,10.1
			H371.3z"/>
		<path class="st2" d="M399.6,162.7c-0.2-3.6-3.1-4.7-5.7-4.7c-2,0-5.2,0.5-5.2,4c0,2,1.4,2.6,2.7,2.9l6.6,1.5
			c3,0.7,5.2,2.5,5.2,6.1c0,5.4-5.1,6.9-9,6.9c-4.3,0-5.9-1.3-6.9-2.2c-2-1.8-2.3-3.7-2.3-5.8h2.9c0,4.2,3.4,5.4,6.3,5.4
			c2.2,0,6-0.6,6-3.9c0-2.4-1.1-3.2-4.9-4.1l-4.7-1.1c-1.5-0.4-4.9-1.4-4.9-5.4c0-3.6,2.3-7.1,7.9-7.1c8,0,8.8,4.8,9,7.3H399.6z"/>
		<path class="st2" d="M415.4,179h-3.1v-23h3.1V179z"/>
		<path class="st2" d="M429.2,172.3l-2.4,6.7h-3.2l8.6-23h3.5l8.3,23h-3.4l-2.3-6.7H429.2z M437.3,169.5l-3.4-10.1h-0.1l-3.7,10.1
			H437.3z"/>
	</g>
</g>
</svg>
